HIERARCHY
ROOT Hips
{
  OFFSET 43.58 83.9632 9.7136
  CHANNELS 6 Xposition Yposition Zposition Zrotation Xrotation Yrotation
  JOINT spine
  {
    OFFSET 0 6.2448 0.359107
    CHANNELS 3 Zrotation Xrotation Yrotation
    JOINT spine1
    {
      OFFSET 0 9.06941 0
      CHANNELS 3 Zrotation Xrotation Yrotation
      JOINT spine2
      {
        OFFSET 0 8.69014 0
        CHANNELS 3 Zrotation Xrotation Yrotation
        JOINT Neck
        {
          OFFSET 0 22.3112 1.06372
          CHANNELS 3 Zrotation Xrotation Yrotation
          JOINT Head
          {
            OFFSET 0 6.74081 0
            CHANNELS 3 Zrotation Xrotation Yrotation
            End Site
            {
              OFFSET 0 16.3165 -5.38097
            }
          }
        }
        JOINT RightShoulder
        {
          OFFSET -3.65916 9.38468 -0.509514
          CHANNELS 3 Zrotation Xrotation Yrotation
          JOINT RightArm
          {
            OFFSET 0 12.3089 0
            CHANNELS 3 Zrotation Xrotation Yrotation
            JOINT RightArmRoll
            {
              OFFSET 0 6.21375 0
              CHANNELS 3 Zrotation Xrotation Yrotation
              JOINT RightForeArm
              {
                OFFSET 0 18.0985 0
                CHANNELS 3 Zrotation Xrotation Yrotation
                JOINT RightForeArmRoll
                {
                  OFFSET 0 6.97279 0
                  CHANNELS 3 Zrotation Xrotation Yrotation
                  JOINT RightHand
                  {
                    OFFSET 0 13.9929 0
                    CHANNELS 3 Zrotation Xrotation Yrotation
                    End Site
                    {
                      OFFSET 0 0 0
                    }
                  }
                }
              }
            }
          }
        }
        JOINT LeftShoulder
        {
          OFFSET 3.65916 9.38468 -0.509514
          CHANNELS 3 Zrotation Xrotation Yrotation
          JOINT LeftArm
          {
            OFFSET 0 12.3089 0
            CHANNELS 3 Zrotation Xrotation Yrotation
            JOINT LeftArmRoll
            {
              OFFSET 0 6.21375 0
              CHANNELS 3 Zrotation Xrotation Yrotation
              JOINT LeftForeArm
              {
                OFFSET 0 18.0985 0
                CHANNELS 3 Zrotation Xrotation Yrotation
                JOINT LeftForeArmRoll
                {
                  OFFSET 0 6.97279 0
                  CHANNELS 3 Zrotation Xrotation Yrotation
                  JOINT LeftHand
                  {
                    OFFSET 0 13.9929 0
                    CHANNELS 3 Zrotation Xrotation Yrotation
                    End Site
                    {
                      OFFSET 0 0 0
                    }
                  }
                }
              }
            }
          }
        }
      }
    }
  }
  JOINT RightUpLeg
  {
    OFFSET -5.53516 -1.015 -0.851454
    CHANNELS 3 Zrotation Xrotation Yrotation
    JOINT RightUpLegRoll
    {
      OFFSET 0 16.4075 0
      CHANNELS 3 Zrotation Xrotation Yrotation
      JOINT RightLeg
      {
        OFFSET 0 -20.3181 0
        CHANNELS 3 Zrotation Xrotation Yrotation
        JOINT RightLegRoll
        {
          OFFSET 0 20.3846 0
          CHANNELS 3 Zrotation Xrotation Yrotation
          JOINT RightFoot
          {
            OFFSET 0 16.9668 0
            CHANNELS 3 Zrotation Xrotation Yrotation
            JOINT RightToeBase
            {
              OFFSET 0 14.1834 0
              CHANNELS 3 Zrotation Xrotation Yrotation
              End Site
              {
                OFFSET 0.0060118 6.8689 -0.791746
              }
            }
          }
        }
      }
    }
  }
  JOINT LeftUpLeg
  {
    OFFSET 5.53516 -1.015 -0.851454
    CHANNELS 3 Zrotation Xrotation Yrotation
    JOINT LeftUpLegRoll
    {
      OFFSET 0 16.4076 0
      CHANNELS 3 Zrotation Xrotation Yrotation
      JOINT LeftLeg
      {
        OFFSET 0 20.3181 0
        CHANNELS 3 Zrotation Xrotation Yrotation
        JOINT LeftLegRoll
        {
          OFFSET 0 20.5731 0
          CHANNELS 3 Zrotation Xrotation Yrotation
          JOINT LeftFoot
          {
            OFFSET 0 16.7783 0
            CHANNELS 3 Zrotation Xrotation Yrotation
            JOINT LeftToeBase
            {
              OFFSET 0 14.1834 0
              CHANNELS 3 Zrotation Xrotation Yrotation
              End Site
              {
                OFFSET -0.0269423 6.86889 -0.791746
              }
            }
          }
        }
      }
    }
  }
}
MOTION
Frames: 4
Frame Time: 0.00208333
62.6757 82.3823 17.0104 -16.1159 -1.18838 77.1585 -0.81144 -1.49421 0.969232 -1.61049 0.999972 2.02172 -1.63575 2.64425 2.04968 -11.5569 -18.9814 -1.26292 16.5571 13.4364 -2.23617 36.4198 6.20038 8.99322 170.667 50.0272 -66.0376 4.77083e-015 -3.18055e-015 9.54166e-015 21.677 14.229 -2.93408 2.36365e-006 4.05786e-006 -3 8.02987 -4.95136 0.69747 -81.0037 -13.359 7.6069 -97.8429 33.1997 -6.57872 1.39149e-015 5.66536e-015 3.49861e-014 -9.15553 18.3161 2.00966 1.27619e-005 2.06353e-005 3 -8.0301 -4.95126 -0.697654 -175.354 7.42961 -0.810402 180 7.01533e-015 178.864 177.675 29.0521 179.316 -6.08397e-008 -3.05059e-006 0.386118 -18.8234 68.5007 19.958 11.3024 48.8523 -7.0669 -178.837 37.3181 6.32893 4.54188e-006 -4.6773e-006 -0.545163 2.45591 -19.2891 1.56452 -3.27834e-006 -3.51779e-006 -0.0614531 14.7166 64.9655 -17.4398 -8.13602 25.2327 3.48753 
62.6656 82.3778 16.9901 -16.0669 -1.1735 77.0963 -0.810164 -1.48535 0.974307 -1.60899 1.01763 2.03189 -1.63438 2.66191 2.05984 -11.5462 -18.9807 -1.253 16.5581 13.4619 -2.22982 36.4537 6.22157 9.00345 170.478 49.9325 -65.7684 -3.18055e-015 4.77083e-015 -0 21.674 14.1506 -2.9141 2.36365e-006 4.05786e-006 -3 8.02987 -4.95136 0.69747 -80.9999 -13.358 7.60664 -97.8414 33.2397 -6.5985 1.98785e-016 -4.89507e-015 7.95139e-015 -9.12917 18.2662 2.0004 1.27619e-005 2.06353e-005 3 -8.0301 -4.95126 -0.697654 -175.37 7.37534 -0.806422 180 7.01533e-015 178.864 177.698 29.0175 179.31 -6.08397e-008 -3.05059e-006 0.385549 -18.8078 68.4829 19.9426 11.3047 48.9491 -7.04521 -178.832 37.2655 6.31181 4.54188e-006 -4.6773e-006 -0.545281 2.45335 -19.3064 1.56598 -3.27834e-006 -3.51779e-006 -0.0628879 14.722 64.9842 -17.4498 -8.13602 25.2327 3.48753 
62.7258 82.3985 17.0231 -16.0175 -1.15825 77.0336 -0.809004 -1.47648 0.979423 -1.60776 1.03532 2.04218 -1.63328 2.67959 2.07012 -11.5341 -18.9805 -1.24323 16.558 13.4882 -2.22358 36.4889 6.24237 9.01295 170.287 49.8384 -65.4994 -3.18055e-015 7.95139e-015 6.36111e-015 21.6711 14.0732 -2.89438 2.36365e-006 4.05786e-006 -3 8.02987 -4.95136 0.69747 -80.9963 -13.357 7.60637 -97.8392 33.2796 -6.61827 9.93923e-016 3.05631e-015 3.18055e-014 -9.10333 18.2154 1.99114 1.27619e-005 2.06353e-005 3 -8.0301 -4.95126 -0.697654 -175.388 7.32074 -0.801628 180 7.01533e-015 178.864 177.72 28.9827 179.304 -6.08397e-008 -3.05059e-006 0.384961 -18.7923 68.465 19.9273 11.3067 49.0461 -7.02287 -178.828 37.2124 6.29527 4.54188e-006 -4.6773e-006 -0.545367 2.45115 -19.3235 1.5675 -3.27834e-006 -3.51779e-006 -0.06421 14.7268 65.0025 -17.4595 -8.13603 25.2327 3.48754 
62.7087 82.3918 17.0076 -15.9684 -1.14264 76.9711 -0.807958 -1.46774 0.984472 -1.60675 1.05274 2.05237 -1.6324 2.69699 2.0803 -11.5202 -18.9805 -1.23349 16.5563 13.5152 -2.21731 36.5262 6.26278 9.02153 170.096 49.7451 -65.2308 1.59028e-015 4.77083e-015 -0 21.6686 13.9967 -2.87487 2.36365e-006 4.05786e-006 -3 8.02987 -4.95136 0.69747 -80.9926 -13.3561 7.60611 -97.8367 33.3192 -6.6378 2.98177e-016 -9.19379e-016 3.18055e-014 -9.07799 18.1641 1.98193 1.27619e-005 2.06353e-005 3 -8.0301 -4.95126 -0.697654 -175.406 7.26705 -0.796153 180 7.01533e-015 178.864 177.742 28.9484 179.298 -6.08397e-008 -3.05059e-006 0.384369 -18.777 68.4474 19.9123 11.3085 49.1429 -7.00034 -178.824 37.1599 6.2795 4.54188e-006 -4.6773e-006 -0.545426 2.44919 -19.3402 1.56901 -3.27834e-006 -3.51779e-006 -0.0654178 14.7311 65.0204 -17.469 -8.13603 25.2327 3.48754 
